<?xml version="1.0" standalone="no"?><!DOCTYPE svg PUBLIC "-//W3C//DTD SVG 1.1//EN" "http://www.w3.org/Graphics/SVG/1.1/DTD/svg11.dtd"><svg class="icon" width="32px" height="32.00px" viewBox="0 0 1024 1024" version="1.1" xmlns="http://www.w3.org/2000/svg"><path fill="#dbdbdb" d="M512 874.666667a21.333333 21.333333 0 0 1-21.333333 21.333333H64a21.333333 21.333333 0 0 1 0-42.666667h426.666667a21.333333 21.333333 0 0 1 21.333333 21.333334zM64 128h896a21.333333 21.333333 0 0 0 0-42.666667H64a21.333333 21.333333 0 0 0 0 42.666667z m896 341.333333H64a21.333333 21.333333 0 0 0 0 42.666667h896a21.333333 21.333333 0 0 0 0-42.666667z m-100.573333 128A121.866667 121.866667 0 0 0 768 638.586667 121.866667 121.866667 0 0 0 676.573333 597.333333C609.333333 597.333333 554.666667 652 554.666667 719.24c0 29.046667 2.38 56.293333 31.64 95.653333 26.786667 36 75.426667 82.78 167.88 161.333334a21.333333 21.333333 0 0 0 27.626666 0c92.453333-78.58 141.093333-125.333333 167.88-161.333334 29.26-39.333333 31.64-66.606667 31.64-95.653333C981.333333 652 926.666667 597.333333 859.426667 597.333333z"  /></svg>