<?xml version="1.0" standalone="no"?><!DOCTYPE svg PUBLIC "-//W3C//DTD SVG 1.1//EN" "http://www.w3.org/Graphics/SVG/1.1/DTD/svg11.dtd"><svg class="icon" width="32px" height="32.00px" viewBox="0 0 1024 1024" version="1.1" xmlns="http://www.w3.org/2000/svg"><path fill="#dbdbdb" d="M512 874.666667a21.333333 21.333333 0 0 1-21.333333 21.333333H64a21.333333 21.333333 0 0 1 0-42.666667h426.666667a21.333333 21.333333 0 0 1 21.333333 21.333334z m448-405.333334H64a21.333333 21.333333 0 0 0 0 42.666667h896a21.333333 21.333333 0 0 0 0-42.666667zM64 128h896a21.333333 21.333333 0 0 0 0-42.666667H64a21.333333 21.333333 0 0 0 0 42.666667z m917.333333 591.24c0 29.046667-2.38 56.293333-31.64 95.653333-26.786667 36-75.426667 82.78-167.88 161.333334a21.333333 21.333333 0 0 1-27.626666 0c-92.453333-78.58-141.093333-125.333333-167.88-161.333334-29.26-39.333333-31.64-66.606667-31.64-95.653333C554.666667 652 609.333333 597.333333 676.573333 597.333333A121.866667 121.866667 0 0 1 768 638.586667 121.866667 121.866667 0 0 1 859.426667 597.333333C926.666667 597.333333 981.333333 652 981.333333 719.24z m-42.666666 0a79.253333 79.253333 0 0 0-151.28-33.046667 21.333333 21.333333 0 0 1-38.773334 0A79.253333 79.253333 0 0 0 597.333333 719.24c0 24.246667 1.56 41.066667 23.213334 70.193333 23.106667 31.073333 67.56 74.093333 147.453333 142.526667 79.893333-68.433333 124.346667-111.453333 147.453333-142.526667 21.653333-29.126667 23.213333-45.946667 23.213334-70.193333z"  /></svg>