<?xml version="1.0" standalone="no"?><!DOCTYPE svg PUBLIC "-//W3C//DTD SVG 1.1//EN" "http://www.w3.org/Graphics/SVG/1.1/DTD/svg11.dtd"><svg class="icon" width="32px" height="32.00px" viewBox="0 0 1024 1024" version="1.1" xmlns="http://www.w3.org/2000/svg"><path fill="#e6e6e6" d="M384 874.666667a21.333333 21.333333 0 0 1-21.333333 21.333333H64a21.333333 21.333333 0 0 1 0-42.666667h298.666667a21.333333 21.333333 0 0 1 21.333333 21.333334zM64 128h896a21.333333 21.333333 0 0 0 0-42.666667H64a21.333333 21.333333 0 0 0 0 42.666667z m298.666667 341.333333H64a21.333333 21.333333 0 0 0 0 42.666667h298.666667a21.333333 21.333333 0 0 0 0-42.666667z m474.413333 0A144.253333 144.253333 0 0 0 725.333333 522.34a144.266667 144.266667 0 0 0-256 91.246667c0 35.653333 2.813333 69.166667 37.406667 118.366666 33.333333 47.4 96.486667 109.586667 204.78 201.633334a21.333333 21.333333 0 0 0 27.626667 0c108.293333-92.046667 171.453333-154.233333 204.78-201.633334 34.593333-49.2 37.406667-82.713333 37.406666-118.366666A144.26 144.26 0 0 0 837.08 469.333333z"  /></svg>